<svg xmlns="http://www.w3.org/2000/svg" width="19.25" height="22" viewBox="305 0 19.25 22"><path d="M314.625 22a2.75 2.75 0 0 0 2.749-2.75h-5.498a2.75 2.75 0 0 0 2.749 2.75Zm9.255-6.433c-.83-.892-2.383-2.234-2.383-6.63 0-3.338-2.341-6.01-5.498-6.667v-.895a1.375 1.375 0 1 0-2.748 0v.895c-3.157.656-5.498 3.329-5.498 6.667 0 4.396-1.553 5.738-2.383 6.63a1.343 1.343 0 0 0-.37.933 1.376 1.376 0 0 0 1.38 1.375h16.49c.822 0 1.376-.67 1.38-1.375a1.342 1.342 0 0 0-.37-.933Z" fill="#1c1c1c" fill-rule="evenodd" data-name="Icon awesome-bell"/></svg>