<svg xmlns="http://www.w3.org/2000/svg" width="27.386" height="16.853" viewBox="159 406.618 27.386 16.853"><g data-name="group_add_black_48dp"><g data-name="Group 2524"><g data-name="Group 2523"><g data-name="Group 2518"><path d="M167.426 415.044a4.208 4.208 0 0 0 4.214-4.213 4.208 4.208 0 0 0-4.214-4.213 4.208 4.208 0 0 0-4.213 4.213 4.208 4.208 0 0 0 4.213 4.213Zm0-6.32c1.166 0 2.107.941 2.107 2.107 0 1.165-.94 2.106-2.107 2.106a2.104 2.104 0 0 1-2.106-2.106c0-1.166.94-2.107 2.106-2.107Z" fill="#563285" fill-rule="evenodd" data-name="Path 1708"/></g><g data-name="Group 2519"><path d="M174.49 418.372a13.825 13.825 0 0 0-7.064-1.924c-2.584 0-5 .703-7.064 1.924-.856.492-1.362 1.433-1.362 2.416v2.682h16.853v-2.682c0-.983-.506-1.924-1.362-2.416Zm-.744 2.992h-12.64v-.576c0-.253.127-.477.31-.59a11.795 11.795 0 0 1 6.01-1.643c2.107 0 4.186.562 6.011 1.63.197.111.31.35.31.589v.59Z" fill="#563285" fill-rule="evenodd" data-name="Path 1709"/></g><g data-name="Group 2520"><path d="M180.108 418.372a13.8 13.8 0 0 0-4.241-1.6 4.894 4.894 0 0 1 2.078 4.016v2.682h3.525v-2.682c0-.983-.505-1.924-1.362-2.416Z" fill="#563285" fill-rule="evenodd" data-name="Path 1710"/></g><g data-name="Group 2521"><path d="M173.044 415.044a4.208 4.208 0 0 0 4.213-4.213 4.208 4.208 0 0 0-4.213-4.213c-.295 0-.59.028-.87.084.968 1.11 1.572 2.542 1.572 4.129 0 1.587-.604 3.005-1.573 4.115.281.07.576.098.871.098Z" fill="#563285" fill-rule="evenodd" data-name="Path 1711"/></g><g data-name="Group 2522"><path d="M186.386 411.884h-2.458v-2.458h-2.106v2.458h-2.458v2.107h2.458v2.457h2.106v-2.457h2.458v-2.107Z" fill="#563285" fill-rule="evenodd" data-name="Path 1712"/></g></g></g></g></svg>