<svg xmlns="http://www.w3.org/2000/svg" width="24.992" height="27.115" viewBox="15.239 14.413 24.992 27.115"><g data-name="receipt_long_black_48dp copy"><g data-name="Group 2479"><path d="m38.52 16.182-1.77-1.77-1.768 1.77-1.77-1.77-1.77 1.77-1.769-1.77-1.769 1.77-1.77-1.77-1.769 1.77-1.769-1.77v3.54H37.93v16.455c0 .59-.412 1.12-1.002 1.238h-.295v2.36h.059a3.55 3.55 0 0 0 3.539-3.54V14.414l-1.71 1.77Z" fill="#563285" fill-rule="evenodd" data-name="Path 1677"/></g><g data-name="Group 2480"><path d="m34.702 19.068-1.77-1.822-1.77 1.822-1.769-1.822-1.769 1.822-1.77-1.822-1.06 1.093h1.592-1.593l-.708.729-.707-.729h-1.121 1.12l-1.061-1.093-1.77 1.822-1.769-1.822v16.998H15.24v3.642c0 2.003 1.592 3.642 3.538 3.642h14.155c1.946 0 3.539-1.639 3.539-3.642v-20.64l-1.77 1.822Zm-6.488 21.246H17.598c-.65 0-1.18-.546-1.18-1.214v-1.214h11.796v2.428Zm4.718-1.214c0 .668-.53 1.214-1.18 1.214-.648 0-1.179-.546-1.179-1.214v-3.642H19.957V22.103h12.975V39.1Z" fill="#563285" fill-rule="evenodd" data-name="Path 1678"/><path d="M21.136 24.554h7.078v2.36h-7.078v-2.36z" fill="#563285" fill-rule="evenodd" data-name="Rectangle 2453"/><path d="M29.393 24.554h2.36v2.36h-2.36v-2.36z" fill="#563285" fill-rule="evenodd" data-name="Rectangle 2454"/><path d="M21.136 28.208h7.078v2.359h-7.078v-2.36z" fill="#563285" fill-rule="evenodd" data-name="Rectangle 2455"/><path d="M29.393 28.208h2.36v2.359h-2.36v-2.36z" fill="#563285" fill-rule="evenodd" data-name="Rectangle 2456"/></g></g></svg>