<svg xmlns="http://www.w3.org/2000/svg" width="16" height="16" viewBox="13 0 16 16"><g data-name="support_icon"><g data-name="Group 2415"><g data-name="Group 2414"><path d="M21.02 2.985c-.855 0-4.872.51-5.01 3.88 2.16-.4 3.842-1.77 4.268-3.51.666 1.15 2.461 2.8 5.562 2.6-.565-1.71-2.498-2.97-4.82-2.97Z" fill="#848282" fill-rule="evenodd" data-name="Path 1581"/><path d="M17.35 8.936a.75.75 0 1 1 0 .1z" fill="#848282" fill-rule="evenodd" data-name="Ellipse 42"/><path d="M23.15 8.936a.75.75 0 1 1 0 .1z" fill="#848282" fill-rule="evenodd" data-name="Ellipse 43"/><path d="M27.857 8c0-4.413-3.074-8-6.857-8-3.783 0-6.857 3.587-6.857 8C13.514 8 13 8.6 13 9.333V12c0 .733.514 1.333 1.143 1.333h1.143V8c0-3.68 2.56-6.667 5.714-6.667 3.154 0 5.714 2.987 5.714 6.667v6.667h-6.857V16h6.857c.629 0 1.143-.6 1.143-1.333v-1.334c.629 0 1.143-.6 1.143-1.333V9.333C29 8.6 28.486 8 27.857 8Z" fill="#848282" fill-rule="evenodd" data-name="Path 1582"/></g></g></g></svg>