<svg xmlns="http://www.w3.org/2000/svg" width="23.162" height="23.065" viewBox="15.878 16.715 23.162 23.065"><g data-name="volunteer_activism_black_48dp copy"><g data-name="Group 2458"><g data-name="Group 2457"><path d="M32.44 16.715a5.238 5.238 0 0 0-5.241 5.242 5.238 5.238 0 0 0 5.242 5.242 5.238 5.238 0 0 0 5.242-5.242 5.238 5.238 0 0 0-5.242-5.242Zm0 9.435c-2.281 0-4.193-1.911-4.193-4.193 0-2.282 1.912-4.194 4.194-4.194s4.194 1.912 4.194 4.194-1.912 4.193-4.194 4.193Zm.186-4.625c-.925-.247-1.234-.493-1.234-.863 0-.432.432-.74 1.11-.74.74 0 .987.37.987.863h.925c0-.678-.431-1.357-1.295-1.542v-.925h-1.233v.863c-.802.185-1.419.679-1.419 1.48 0 .926.802 1.419 1.912 1.666 1.049.246 1.234.616 1.234.986 0 .309-.185.74-1.11.74-.864 0-1.172-.37-1.234-.863h-.925c.062.864.74 1.419 1.48 1.542v.863h1.234v-.863c.801-.123 1.418-.617 1.418-1.48.062-1.11-.925-1.48-1.85-1.727Z" fill="#563285" fill-rule="evenodd" data-name="Path 1645"/><path d="M34.952 31.64H33.59c0-1.358-.795-2.53-1.93-2.961l-7.607-2.96h-8.175v13.32h6.812v-1.726l7.494 2.467 8.856-2.96v-.74c0-2.467-1.817-4.44-4.088-4.44ZM20.987 37.62v.247h-3.406v-10.3h3.406v10.053Zm9.821.247-8.118-2.714V27.57h1.079l7.89 3.083c.341.124.625.555.625.925h-3.463l-2.782-1.11-.794 2.22 2.952 1.296h7.777c.909 0 1.703.616 2.044 1.48l-7.21 2.405Z" fill="#563285" fill-rule="evenodd" data-name="Path 1646"/></g></g></g></svg>